<svg width="34" height="34" viewBox="0 0 34 34" fill="none" xmlns="http://www.w3.org/2000/svg">
<path fill-rule="evenodd" clip-rule="evenodd" d="M22.3999 12.4349C22.0323 12.848 21.4005 12.8842 20.9881 12.5173C20.5757 12.1504 20.5381 11.5187 20.9057 11.1055L22.2351 9.61126C22.6026 9.19811 23.2345 9.16193 23.6469 9.52884C24.0593 9.89575 24.0969 10.5275 23.7293 10.9406L22.3999 12.4349ZM13.2644 13.6765C15.0969 11.6167 18.2636 11.4319 20.3234 13.2644C22.3832 15.097 22.5681 18.2637 20.7355 20.3235C19.686 21.5032 18.1369 22.11 16.5852 21.9796L13.9238 24.971C13.1906 25.7951 11.9242 25.869 11.1001 25.1359L9.6059 23.8065C8.78183 23.0733 8.70789 21.8069 9.44105 20.9829L12.1025 17.9914C11.7916 16.4647 12.2148 14.8562 13.2644 13.6765ZM24.3887 22.2351L22.8945 20.9057C22.4813 20.5382 21.8502 20.575 21.4826 20.9882C21.1151 21.4013 21.1519 22.0324 21.5651 22.4L23.0593 23.7294C23.4725 24.0969 24.1035 24.0601 24.4711 23.6469C24.8387 23.2338 24.8018 22.6027 24.3887 22.2351ZM10.9406 10.2707L12.4348 11.6C12.8472 11.967 12.8848 12.5987 12.5172 13.0119C12.1497 13.425 11.5178 13.4612 11.1054 13.0943L9.6112 11.7649C9.19879 11.398 9.1612 10.7662 9.52878 10.3531C9.89635 9.93992 10.5282 9.90375 10.9406 10.2707ZM17.4675 9.94464L17.3164 7.94965C17.2743 7.39962 16.7942 6.9885 16.2427 7.0292C15.6926 7.06982 15.2794 7.5508 15.3207 8.10158L15.4726 10.0958C15.4933 10.3659 15.6183 10.6015 15.805 10.7677C16.0008 10.9419 16.2642 11.0384 16.5456 11.017C17.0957 10.9764 17.5089 10.4954 17.4675 9.94464ZM25.9509 15.6339C26.5014 15.611 26.9692 16.0419 26.9907 16.591C27.0143 17.1421 26.5847 17.6085 26.0335 17.6308L24.0345 17.7128C23.766 17.7242 23.516 17.6276 23.3292 17.4614C23.1335 17.2873 23.0062 17.0362 22.9954 16.7549C22.9718 16.2038 23.4014 15.7374 23.9526 15.7152L25.9509 15.6339Z" fill="#231F20"/>
<mask id="mask0_18_738" style="mask-type:luminance" maskUnits="userSpaceOnUse" x="8" y="7" width="19" height="19">
<path fill-rule="evenodd" clip-rule="evenodd" d="M22.3999 12.4349C22.0323 12.848 21.4005 12.8842 20.9881 12.5173C20.5757 12.1504 20.5381 11.5187 20.9057 11.1055L22.2351 9.61126C22.6026 9.19811 23.2345 9.16193 23.6469 9.52884C24.0593 9.89575 24.0969 10.5275 23.7293 10.9406L22.3999 12.4349ZM13.2644 13.6765C15.0969 11.6167 18.2636 11.4319 20.3234 13.2644C22.3832 15.097 22.5681 18.2637 20.7355 20.3235C19.686 21.5032 18.1369 22.11 16.5852 21.9796L13.9238 24.971C13.1906 25.7951 11.9242 25.869 11.1001 25.1359L9.6059 23.8065C8.78183 23.0733 8.70789 21.8069 9.44105 20.9829L12.1025 17.9914C11.7916 16.4647 12.2148 14.8562 13.2644 13.6765ZM24.3887 22.2351L22.8945 20.9057C22.4813 20.5382 21.8502 20.575 21.4826 20.9882C21.1151 21.4013 21.1519 22.0324 21.5651 22.4L23.0593 23.7294C23.4725 24.0969 24.1035 24.0601 24.4711 23.6469C24.8387 23.2338 24.8018 22.6027 24.3887 22.2351ZM10.9406 10.2707L12.4348 11.6C12.8472 11.967 12.8848 12.5987 12.5172 13.0119C12.1497 13.425 11.5178 13.4612 11.1054 13.0943L9.6112 11.7649C9.19879 11.398 9.1612 10.7662 9.52878 10.3531C9.89635 9.93992 10.5282 9.90375 10.9406 10.2707ZM17.4675 9.94464L17.3164 7.94965C17.2743 7.39962 16.7942 6.9885 16.2427 7.0292C15.6926 7.06982 15.2794 7.5508 15.3207 8.10158L15.4726 10.0958C15.4933 10.3659 15.6183 10.6015 15.805 10.7677C16.0008 10.9419 16.2642 11.0384 16.5456 11.017C17.0957 10.9764 17.5089 10.4954 17.4675 9.94464ZM25.9509 15.6339C26.5014 15.611 26.9692 16.0419 26.9907 16.591C27.0143 17.1421 26.5847 17.6085 26.0335 17.6308L24.0345 17.7128C23.766 17.7242 23.516 17.6276 23.3292 17.4614C23.1335 17.2873 23.0062 17.0362 22.9954 16.7549C22.9718 16.2038 23.4014 15.7374 23.9526 15.7152L25.9509 15.6339Z" fill="white"/>
</mask>
<g mask="url(#mask0_18_738)">
<rect x="16.0109" y="0.0582886" width="24" height="24" transform="rotate(41.6588 16.0109 0.0582886)" fill="white"/>
</g>
</svg>
