<svg width="50" height="50" viewBox="0 0 50 50" fill="none" xmlns="http://www.w3.org/2000/svg">
<path fill-rule="evenodd" clip-rule="evenodd" d="M31.6256 26.4128L23.4089 18.2435L32.5459 17.3474L31.6256 26.4128ZM23.3466 34.7398L15.1299 26.5705L24.2669 25.6744L23.3466 34.7398ZM32.7574 14.3784L23.0943 15.3249C21.9416 15.4392 20.9371 16.2372 20.5387 17.3561C20.1866 18.3473 20.4024 19.3939 21.1029 20.0903L23.7998 22.7717L14.8153 23.6518C13.6625 23.7662 12.6571 24.5652 12.2597 25.6831C11.9076 26.6743 12.1234 27.7209 12.8239 28.4173L21.5943 37.1372C22.2948 37.8337 23.3426 38.0434 24.3317 37.6856C24.7713 37.5245 25.1619 37.2712 25.4796 36.9516C25.967 36.4614 26.2838 35.8159 26.3471 35.1172L27.1774 26.1299L29.8733 28.8102C30.5738 29.5067 31.6216 29.7164 32.6107 29.3586C33.0503 29.1975 33.4409 28.9442 33.7586 28.6246C34.246 28.1344 34.5628 27.4889 34.6262 26.7903L35.5188 17.1219C35.5903 16.3505 35.3287 15.6061 34.802 15.0824C34.2753 14.5588 33.5294 14.3015 32.7574 14.3784Z" fill="#231F20"/>
<mask id="mask0_6_554" style="mask-type:luminance" maskUnits="userSpaceOnUse" x="12" y="14" width="24" height="24">
<path fill-rule="evenodd" clip-rule="evenodd" d="M31.6256 26.4128L23.4089 18.2435L32.5459 17.3474L31.6256 26.4128ZM23.3466 34.7398L15.1299 26.5705L24.2669 25.6744L23.3466 34.7398ZM32.7574 14.3784L23.0943 15.3249C21.9416 15.4392 20.9371 16.2372 20.5387 17.3561C20.1866 18.3473 20.4024 19.3939 21.1029 20.0903L23.7998 22.7717L14.8153 23.6518C13.6625 23.7662 12.6571 24.5652 12.2597 25.6831C11.9076 26.6743 12.1234 27.7209 12.8239 28.4173L21.5943 37.1372C22.2948 37.8337 23.3426 38.0434 24.3317 37.6856C24.7713 37.5245 25.1619 37.2712 25.4796 36.9516C25.967 36.4614 26.2838 35.8159 26.3471 35.1172L27.1774 26.1299L29.8733 28.8102C30.5738 29.5067 31.6216 29.7164 32.6107 29.3586C33.0503 29.1975 33.4409 28.9442 33.7586 28.6246C34.246 28.1344 34.5628 27.4889 34.6262 26.7903L35.5188 17.1219C35.5903 16.3505 35.3287 15.6061 34.802 15.0824C34.2753 14.5588 33.5294 14.3015 32.7574 14.3784Z" fill="white"/>
</mask>
<g mask="url(#mask0_6_554)">
<rect x="0.0614624" y="25.0425" width="35.2268" height="35.2268" transform="rotate(-45.1655 0.0614624 25.0425)" fill="white"/>
</g>
</svg>
