<?xml version="1.0" encoding="utf-8"?>
<!-- Generator: Adobe Illustrator 27.0.0, SVG Export Plug-In . SVG Version: 6.00 Build 0)  -->
<svg version="1.1" id="Layer_2_00000086658817417730083360000009091609787395158177_"
	 xmlns="http://www.w3.org/2000/svg" xmlns:xlink="http://www.w3.org/1999/xlink" x="0px" y="0px" viewBox="0 0 40.4 67"
	 style="enable-background:new 0 0 40.4 67;" xml:space="preserve">
<style type="text/css">
	.st0{fill:#231F20;}
	.st1{fill:#241A1E;}
	.st2{fill:#FFF100;}
</style>
<g id="Layer_1-2">
	<g>
		<path class="st0" d="M7,0L7,0c3.8,0,7,3.1,7,7l0,0c0,3.8-3.1,7-7,7l0,0c-3.8,0-7-3.1-7-7l0,0C0,3.1,3.1,0,7,0z"/>
		<path class="st0" d="M33.5,0L33.5,0c3.8,0,7,3.1,7,7l0,0c0,3.8-3.1,7-7,7l0,0c-3.8,0-7-3.1-7-7l0,0C26.5,3.1,29.6,0,33.5,0z"/>
		<path class="st0" d="M33.5,25.3L33.5,25.3c3.8,0,7,3.1,7,7l0,0c0,3.8-3.1,7-7,7l0,0c-3.8,0-7-3.1-7-7l0,0
			C26.5,28.4,29.6,25.3,33.5,25.3z"/>
		<path class="st0" d="M33.5,50.6L33.5,50.6c3.8,0,7,3.1,7,7v0c0,3.8-3.1,7-7,7l0,0c-3.8,0-7-3.1-7-7v0
			C26.5,53.7,29.6,50.6,33.5,50.6z"/>
		<path class="st0" d="M7,53.1L7,53.1c3.8,0,7,3.1,7,7l0,0c0,3.8-3.1,7-7,7l0,0c-3.8,0-7-3.1-7-7l0,0C0,56.2,3.1,53.1,7,53.1z"/>
		<path class="st0" d="M7,27.8L7,27.8c3.8,0,7,3.1,7,7l0,0c0,3.8-3.1,7-7,7l0,0c-3.8,0-7-3.1-7-7l0,0C0,30.9,3.1,27.8,7,27.8z"/>
	</g>
</g>
<rect x="-285" y="-169.7" class="st1" width="162" height="168"/>
<g id="Layer_1-2_00000098928437061575398570000001802162332524360581_">
	<g>
		<path class="st2" d="M6.7,0.3L6.7,0.3c3.8,0,7,3.1,7,7l0,0c0,3.8-3.1,7-7,7l0,0c-3.8,0-7-3.1-7-7l0,0C-0.2,3.4,2.9,0.3,6.7,0.3z"
			/>
		<path class="st2" d="M33.3,0.3L33.3,0.3c3.8,0,7,3.1,7,7l0,0c0,3.8-3.1,7-7,7l0,0c-3.8,0-7-3.1-7-7l0,0
			C26.3,3.4,29.4,0.3,33.3,0.3z"/>
		<path class="st2" d="M33.3,25.6L33.3,25.6c3.8,0,7,3.1,7,7l0,0c0,3.8-3.1,7-7,7l0,0c-3.8,0-7-3.1-7-7l0,0
			C26.3,28.7,29.4,25.6,33.3,25.6z"/>
		<path class="st2" d="M33.3,50.9L33.3,50.9c3.8,0,7,3.1,7,7v0c0,3.8-3.1,7-7,7l0,0c-3.8,0-7-3.1-7-7v0C26.3,54,29.4,50.9,33.3,50.9
			z"/>
		<path class="st2" d="M6.7,53.4L6.7,53.4c3.8,0,7,3.1,7,7l0,0c0,3.8-3.1,7-7,7l0,0c-3.8,0-7-3.1-7-7l0,0
			C-0.2,56.5,2.9,53.4,6.7,53.4z"/>
		<path class="st2" d="M6.7,28L6.7,28c3.8,0,7,3.1,7,7l0,0c0,3.8-3.1,7-7,7l0,0c-3.8,0-7-3.1-7-7l0,0C-0.2,31.1,2.9,28,6.7,28z"/>
	</g>
</g>
</svg>
